<?xml version="1.0" encoding="UTF-8"?>
<svg width="30px" height="30px" viewBox="0 0 30 30" version="1.1" xmlns="http://www.w3.org/2000/svg" xmlns:xlink="http://www.w3.org/1999/xlink">
    <!-- Generator: Sketch 42 (36781) - http://www.bohemiancoding.com/sketch -->
    <title>失败</title>
    <desc>Created with Sketch.</desc>
    <defs></defs>
    <g id="Page-1" stroke="none" stroke-width="1" fill="none" fill-rule="evenodd">
        <g id="分诊台-新建分诊台" transform="translate(-272.000000, -611.000000)">
            <g id="数据库信息" transform="translate(0.000000, 580.000000)">
                <g id="连接失败" transform="translate(272.000000, 24.000000)">
                    <g id="失败" transform="translate(0.000000, 7.000000)">
                        <path d="M15,0 C6.71428573,0 0,6.71428573 0,15 C0,23.2857143 6.71428573,30 15,30 C23.2857143,30 30,23.2857143 30,15 C30,6.71785716 23.2821429,0 15,0 L15,0 Z" id="Shape" fill="#F44141" fill-rule="nonzero"></path>
                        <path d="M20.0612741,20.83461 C19.8629546,20.83461 19.665413,20.7610611 19.5142125,20.6095373 L9.39072545,10.4871993 C9.08881393,10.1852717 9.08881393,9.69547498 9.39072545,9.39348697 C9.69263698,9.09149896 10.1824075,9.09155932 10.4843794,9.39348697 L20.6078664,19.5158182 C20.9097712,19.8177392 20.9097712,20.3075426 20.6078664,20.6095306 C20.4569743,20.7604307 20.2591913,20.8346033 20.0608047,20.8346033 L20.0608047,20.8346033 L20.0612741,20.8346033 L20.0612741,20.83461 Z" id="Path" fill="#FFFFFF"></path>
                        <path d="M9.93778712,20.83461 C9.73946764,20.83461 9.54192598,20.7610611 9.39072545,20.6095373 C9.08881393,20.3076164 9.08881393,19.817813 9.39072545,19.5158249 L19.5142125,9.39349368 C19.8161173,9.09156603 20.3058945,9.09156603 20.6078664,9.39349368 C20.9098383,9.69542133 20.9097712,10.185218 20.6078664,10.487206 L10.4843727,20.6095306 C10.3333532,20.7604308 10.1356909,20.8346034 9.93731102,20.8346034 L9.93731102,20.8346034 L9.93778712,20.8346033 L9.93778712,20.83461 Z" id="Path" fill="#FFFFFF"></path>
                    </g>
                </g>
            </g>
        </g>
    </g>
</svg>