<?xml version="1.0" encoding="UTF-8"?>
<svg width="30px" height="30px" viewBox="0 0 30 30" version="1.1" xmlns="http://www.w3.org/2000/svg" xmlns:xlink="http://www.w3.org/1999/xlink">
    <!-- Generator: Sketch 42 (36781) - http://www.bohemiancoding.com/sketch -->
    <title>成功</title>
    <desc>Created with Sketch.</desc>
    <defs></defs>
    <g id="Page-1" stroke="none" stroke-width="1" fill="none" fill-rule="evenodd">
        <g id="分诊台-新建分诊台" transform="translate(-272.000000, -611.000000)" fill-rule="nonzero">
            <g id="数据库信息" transform="translate(0.000000, 580.000000)">
                <g id="连接成功" transform="translate(272.000000, 24.000000)">
                    <g id="成功" transform="translate(0.000000, 7.000000)">
                        <g id="Group">
                            <path d="M15,0.000966200923 C6.71852238,0.000966200923 0.00522013857,6.71618269 0.00522013857,15 C0.00522013857,23.2838173 6.71852238,29.9990338 15,29.9990338 C23.2813004,29.9990338 29.9947799,23.2838173 29.9947799,15 C29.9947799,6.71618269 23.2813004,0.000966200923 15,0.000966200923 Z" id="Shape" fill="#52D623"></path>
                            <path d="M21.5058523,10.620084 L13.5539833,18.5741864 L9.17580433,14.1947313 C8.77646678,13.7952519 8.12905427,13.7955001 7.72996483,14.1947313 C7.33083998,14.5939625 7.33062727,15.2415168 7.72996483,15.6409961 L12.831099,20.7435837 C13.2304365,21.1430631 13.877849,21.1428149 14.2769385,20.7435837 L22.9516918,12.0663489 C23.3508167,11.6671177 23.3510294,11.0195634 22.9516918,10.620084 C22.5523542,10.2206047 21.9049417,10.2208528 21.5058523,10.620084 Z" id="Shape" fill="#FFFFFF"></path>
                        </g>
                    </g>
                </g>
            </g>
        </g>
    </g>
</svg>