<?xml version="1.0" encoding="UTF-8"?>
<svg width="30px" height="30px" viewBox="0 0 30 30" version="1.1" xmlns="http://www.w3.org/2000/svg" xmlns:xlink="http://www.w3.org/1999/xlink">
    <!-- Generator: Sketch 42 (36781) - http://www.bohemiancoding.com/sketch -->
    <title>感叹号 (2)</title>
    <desc>Created with Sketch.</desc>
    <defs></defs>
    <g id="Page-1" stroke="none" stroke-width="1" fill="none" fill-rule="evenodd">
        <g id="分诊台-新建队列" transform="translate(-1590.000000, -412.000000)" fill-rule="nonzero" fill="#F44141">
            <g id="基础信息" transform="translate(0.000000, 280.000000)">
                <g id="感叹号-(2)" transform="translate(1590.000000, 132.000000)">
                    <path d="M15,30 C23.2842713,30 30,23.2842713 30,15 C30,6.71572875 23.2842713,0 15,0 C6.71572875,0 0,6.71572875 0,15 C0,23.2842713 6.71572875,30 15,30 Z M13.75,22.5 C13.75,21.8096441 14.304831,21.25 15,21.25 C15.6903559,21.25 16.25,21.804831 16.25,22.5 C16.25,23.1903559 15.695169,23.75 15,23.75 C14.3096441,23.75 13.75,23.195169 13.75,22.5 Z M13.75,7.49424697 C13.75,6.80706835 14.304831,6.24999999 15,6.24999999 C15.6903559,6.24999999 16.25,6.81958049 16.25,7.49424697 L16.25,17.505753 C16.25,18.1929316 15.695169,18.75 15,18.75 C14.3096441,18.75 13.75,18.1804195 13.75,17.505753 L13.75,7.49424697 Z" id="Shape"></path>
                </g>
            </g>
        </g>
    </g>
</svg>